<svg id="visual" viewBox="0 0 1080 750" width="1080" height="750" xmlns="http://www.w3.org/2000/svg" xmlns:xlink="http://www.w3.org/1999/xlink" version="1.1"><rect x="0" y="0" width="1080" height="750" fill="#171717"></rect><defs><linearGradient id="grad1_0" x1="30.6%" y1="0%" x2="100%" y2="100%"><stop offset="21.2%" stop-color="#cccccc" stop-opacity="1"></stop><stop offset="78.8%" stop-color="#cccccc" stop-opacity="1"></stop></linearGradient></defs><defs><linearGradient id="grad1_1" x1="30.6%" y1="0%" x2="100%" y2="100%"><stop offset="21.2%" stop-color="#cccccc" stop-opacity="1"></stop><stop offset="78.8%" stop-color="#9a9a9a" stop-opacity="1"></stop></linearGradient></defs><defs><linearGradient id="grad1_2" x1="30.6%" y1="0%" x2="100%" y2="100%"><stop offset="21.2%" stop-color="#6a6a6a" stop-opacity="1"></stop><stop offset="78.8%" stop-color="#9a9a9a" stop-opacity="1"></stop></linearGradient></defs><defs><linearGradient id="grad1_3" x1="30.6%" y1="0%" x2="100%" y2="100%"><stop offset="21.2%" stop-color="#6a6a6a" stop-opacity="1"></stop><stop offset="78.8%" stop-color="#3e3e3e" stop-opacity="1"></stop></linearGradient></defs><defs><linearGradient id="grad1_4" x1="30.6%" y1="0%" x2="100%" y2="100%"><stop offset="21.2%" stop-color="#171717" stop-opacity="1"></stop><stop offset="78.8%" stop-color="#3e3e3e" stop-opacity="1"></stop></linearGradient></defs><defs><linearGradient id="grad2_0" x1="0%" y1="0%" x2="69.4%" y2="100%"><stop offset="21.2%" stop-color="#cccccc" stop-opacity="1"></stop><stop offset="78.8%" stop-color="#cccccc" stop-opacity="1"></stop></linearGradient></defs><defs><linearGradient id="grad2_1" x1="0%" y1="0%" x2="69.4%" y2="100%"><stop offset="21.2%" stop-color="#9a9a9a" stop-opacity="1"></stop><stop offset="78.8%" stop-color="#cccccc" stop-opacity="1"></stop></linearGradient></defs><defs><linearGradient id="grad2_2" x1="0%" y1="0%" x2="69.4%" y2="100%"><stop offset="21.2%" stop-color="#9a9a9a" stop-opacity="1"></stop><stop offset="78.8%" stop-color="#6a6a6a" stop-opacity="1"></stop></linearGradient></defs><defs><linearGradient id="grad2_3" x1="0%" y1="0%" x2="69.4%" y2="100%"><stop offset="21.2%" stop-color="#3e3e3e" stop-opacity="1"></stop><stop offset="78.8%" stop-color="#6a6a6a" stop-opacity="1"></stop></linearGradient></defs><defs><linearGradient id="grad2_4" x1="0%" y1="0%" x2="69.4%" y2="100%"><stop offset="21.2%" stop-color="#3e3e3e" stop-opacity="1"></stop><stop offset="78.8%" stop-color="#171717" stop-opacity="1"></stop></linearGradient></defs><g transform="translate(1080, 0)"><path d="M0 591.7C-65.4 591.8 -130.8 591.9 -182.8 562.7C-234.9 533.5 -273.7 475.1 -308.6 424.7C-343.4 374.4 -374.4 332.3 -397.2 288.6C-420.1 244.9 -434.9 199.8 -466 151.4C-497.1 103.1 -544.4 51.5 -591.7 0L0 0Z" fill="#2a2a2a"></path><path d="M0 473.4C-52.3 473.4 -104.6 473.5 -146.3 450.2C-187.9 426.8 -219 380 -246.9 339.8C-274.8 299.5 -299.5 265.8 -317.8 230.9C-336.1 196 -348 159.8 -372.8 121.1C-397.7 82.5 -435.5 41.2 -473.4 0L0 0Z" fill="#545454"></path><path d="M0 355C-39.2 355.1 -78.5 355.2 -109.7 337.6C-141 320.1 -164.2 285 -185.2 254.8C-206.1 224.6 -224.6 199.4 -238.3 173.2C-252.1 147 -261 119.9 -279.6 90.9C-298.3 61.8 -326.6 30.9 -355 0L0 0Z" fill="#828282"></path><path d="M0 236.7C-26.2 236.7 -52.3 236.8 -73.1 225.1C-94 213.4 -109.5 190 -123.4 169.9C-137.4 149.8 -149.7 132.9 -158.9 115.4C-168 98 -174 79.9 -186.4 60.6C-198.8 41.2 -217.8 20.6 -236.7 0L0 0Z" fill="#b2b2b2"></path><path d="M0 118.3C-13.1 118.4 -26.2 118.4 -36.6 112.5C-47 106.7 -54.7 95 -61.7 84.9C-68.7 74.9 -74.9 66.5 -79.4 57.7C-84 49 -87 40 -93.2 30.3C-99.4 20.6 -108.9 10.3 -118.3 0L0 0Z" fill="#cccccc"></path></g><g transform="translate(0, 750)"><path d="M0 -591.7C53.3 -558.2 106.7 -524.6 165.3 -508.8C224 -493 287.9 -494.9 342.7 -471.7C397.5 -448.4 443.3 -400 478.7 -347.8C514.1 -295.5 539.3 -239.4 556.4 -180.8C573.5 -122.2 582.6 -61.1 591.7 0L0 0Z" fill="#2a2a2a"></path><path d="M0 -473.4C42.7 -446.5 85.4 -419.7 132.3 -407.1C179.2 -394.4 230.3 -395.9 274.1 -377.3C318 -358.7 354.6 -320 383 -278.2C411.3 -236.4 431.4 -191.5 445.1 -144.6C458.8 -97.7 466.1 -48.9 473.4 0L0 0Z" fill="#545454"></path><path d="M0 -355C32 -334.9 64 -314.8 99.2 -305.3C134.4 -295.8 172.7 -296.9 205.6 -283C238.5 -269.1 266 -240 287.2 -208.7C308.5 -177.3 323.6 -143.6 333.8 -108.5C344.1 -73.3 349.6 -36.6 355 0L0 0Z" fill="#828282"></path><path d="M0 -236.7C21.3 -223.3 42.7 -209.9 66.1 -203.5C89.6 -197.2 115.1 -198 137.1 -188.7C159 -179.4 177.3 -160 191.5 -139.1C205.7 -118.2 215.7 -95.8 222.5 -72.3C229.4 -48.9 233 -24.4 236.7 0L0 0Z" fill="#b2b2b2"></path><path d="M0 -118.3C10.7 -111.6 21.3 -104.9 33.1 -101.8C44.8 -98.6 57.6 -99 68.5 -94.3C79.5 -89.7 88.7 -80 95.7 -69.6C102.8 -59.1 107.9 -47.9 111.3 -36.2C114.7 -24.4 116.5 -12.2 118.3 0L0 0Z" fill="#cccccc"></path></g></svg>